<svg xmlns="http://www.w3.org/2000/svg"  viewBox="0 0 40 40" width="160px" height="160px"><path fill="#f2faff" d="M30.5,37.5h-21c-1.657,0-3-1.343-3-3v-28c0-1.657,1.343-3,3-3h21c1.657,0,3,1.343,3,3v28 C33.5,36.157,32.157,37.5,30.5,37.5z"/><path fill="#a3b7cc" d="M30.5,38h-21C7.57,38,6,36.43,6,34.5v-28C6,4.57,7.57,3,9.5,3h21C32.43,3,34,4.57,34,6.5v28 C34,36.43,32.43,38,30.5,38z M9.5,4C8.121,4,7,5.122,7,6.5v28C7,35.878,8.121,37,9.5,37h21c1.379,0,2.5-1.122,2.5-2.5v-28 C33,5.122,31.879,4,30.5,4H9.5z"/><path fill="#a3b7cc" d="M29.5,3v3H29c-0.6,0-1-0.4-1-1V3H29.5z"/><path fill="#788b9c" d="M29,5.5v-4C29,1.2,29.2,1,29.5,1S30,1.2,30,1.5v4C30,5.8,29.8,6,29.5,6S29,5.8,29,5.5z"/><path fill="#a3b7cc" d="M23.5,3v3H23c-0.6,0-1-0.4-1-1V3H23.5z"/><path fill="#788b9c" d="M23,5.5v-4C23,1.2,23.2,1,23.5,1S24,1.2,24,1.5v4C24,5.8,23.8,6,23.5,6S23,5.8,23,5.5z"/><path fill="#a3b7cc" d="M17.5,3v3H17c-0.6,0-1-0.4-1-1V3H17.5z"/><path fill="#788b9c" d="M17,5.5v-4C17,1.2,17.2,1,17.5,1S18,1.2,18,1.5v4C18,5.8,17.8,6,17.5,6S17,5.8,17,5.5z"/><path fill="#a3b7cc" d="M11.5,3v3H11c-0.6,0-1-0.4-1-1V3H11.5z"/><path fill="#788b9c" d="M11,5.5v-4C11,1.2,11.2,1,11.5,1S12,1.2,12,1.5v4C12,5.8,11.8,6,11.5,6S11,5.8,11,5.5z"/><path fill="#d6e3ed" d="M34,16.04V6.5c0-1.225-0.635-2.301-1.591-2.926l-0.733,0.734C32.46,4.73,33,5.549,33,6.5v10.54	L34,16.04z"/><g><path fill="#f5ce85" d="M23.169,23.334l-5.357,1.855l1.864-5.348l0.966-0.965l3.492,3.492L23.169,23.334z"/><path fill="#967a44" d="M18.624,24.379l1.487-4.265l0.531-0.531l2.786,2.786l-0.53,0.53L18.624,24.379 M17,26l6.442-2.231 l1.4-1.4l-4.2-4.2l-1.4,1.4L17,26L17,26z"/><path fill="#36404d" d="M20.373,24.832l-2.2-2.197L17,26L20.373,24.832z"/><path fill="#f78f8f" d="M38.51,6.97c0,0.66-0.257,1.279-0.724,1.746L36.74,9.763L33.247,6.27l1.047-1.046 C34.761,4.757,35.38,4.5,36.04,4.5s1.279,0.257,1.746,0.724S38.51,6.31,38.51,6.97z"/><path fill="#c74343" d="M33.955,6.27l0.693-0.693c0.768-0.768,2.018-0.768,2.786,0c0.371,0.372,0.576,0.867,0.576,1.393 s-0.205,1.021-0.577,1.393L36.74,9.056L33.955,6.27 M32.541,6.27l4.2,4.2l1.4-1.4c0.58-0.58,0.87-1.34,0.87-2.1 s-0.29-1.52-0.87-2.1c-1.16-1.16-3.04-1.16-4.2,0L32.541,6.27L32.541,6.27z"/><path fill="#ffeea3" d="M23.746,22.757c-0.205-0.371-0.574-0.67-1.161-0.771c-0.184-0.943-0.926-1.368-1.538-1.514 c-0.086-0.438-0.292-0.723-0.473-0.896c-0.114-0.109-0.236-0.196-0.36-0.263L31.841,7.676l3.492,3.492L23.746,22.757z"/><path fill="#ba9b48" d="M20.97,19.264l10.871-10.88l2.785,2.785L23.781,22.015c-0.211-0.191-0.473-0.344-0.79-0.443 c-0.269-0.796-0.898-1.269-1.532-1.496C21.337,19.712,21.148,19.448,20.97,19.264 M19.247,19.574c0,0,1.341-0.048,1.341,1.337 c0,0,1.54,0.048,1.54,1.538c1.191,0,1.324,0.799,1.324,1.153c0,0.101-0.011,0.166-0.011,0.166L36.04,11.169l-4.2-4.2 L19.247,19.574L19.247,19.574z"/><g><path fill="#d9e7f5" d="M35.34,11.162L31.848,7.67l2.093-2.093l3.492,3.492L35.34,11.162z"/><path fill="#788b9c" d="M32.555,7.67l1.386-1.386l2.786,2.786l-1.386,1.386L32.555,7.67 M31.141,7.67l4.2,4.2l2.8-2.8 l-4.2-4.2L31.141,7.67L31.141,7.67z"/></g></g></svg>