<svg xmlns="http://www.w3.org/2000/svg"  viewBox="0 0 100 100" width="500px" height="500px"><path fill="#c7ede6" d="M87.215,56.71C88.35,54.555,89,52.105,89,49.5c0-6.621-4.159-12.257-10.001-14.478 C78.999,35.015,79,35.008,79,35c0-11.598-9.402-21-21-21c-9.784,0-17.981,6.701-20.313,15.757C36.211,29.272,34.638,29,33,29 c-7.692,0-14.023,5.793-14.89,13.252C12.906,43.353,9,47.969,9,53.5C9,59.851,14.149,65,20.5,65c0.177,0,0.352-0.012,0.526-0.022 C21.022,65.153,21,65.324,21,65.5C21,76.822,30.178,86,41.5,86c6.437,0,12.175-2.972,15.934-7.614C59.612,80.611,62.64,82,66,82 c4.65,0,8.674-2.65,10.666-6.518C77.718,75.817,78.837,76,80,76c6.075,0,11-4.925,11-11C91,61.689,89.53,58.727,87.215,56.71z"/><path fill="#fff" d="M18.405,48H8.5C8.224,48,8,47.776,8,47.5S8.224,47,8.5,47h9.905c0.276,0,0.5,0.224,0.5,0.5 S18.682,48,18.405,48z"/><path fill="#fff" d="M21.5,48h-1c-0.276,0-0.5-0.224-0.5-0.5s0.224-0.5,0.5-0.5h1c0.276,0,0.5,0.224,0.5,0.5 S21.777,48,21.5,48z"/><path fill="#fff" d="M26.491,50H17.5c-0.276,0-0.5-0.224-0.5-0.5s0.224-0.5,0.5-0.5h8.991c0.276,0,0.5,0.224,0.5,0.5 S26.767,50,26.491,50z"/><path fill="#fff" d="M15.5,50h-1c-0.276,0-0.5-0.224-0.5-0.5s0.224-0.5,0.5-0.5h1c0.276,0,0.5,0.224,0.5,0.5 S15.777,50,15.5,50z"/><path fill="#fff" d="M12.5,50h-2c-0.276,0-0.5-0.224-0.5-0.5s0.224-0.5,0.5-0.5h2c0.276,0,0.5,0.224,0.5,0.5 S12.777,50,12.5,50z"/><path fill="#fff" d="M18.5,52h-2c-0.276,0-0.5-0.224-0.5-0.5s0.224-0.5,0.5-0.5h2c0.276,0,0.5,0.224,0.5,0.5 S18.776,52,18.5,52z"/><path fill="#fff" d="M21.5,43c-0.177,0-0.823,0-1,0c-0.276,0-0.5,0.224-0.5,0.5c0,0.276,0.224,0.5,0.5,0.5 c0.177,0,0.823,0,1,0c0.276,0,0.5-0.224,0.5-0.5C22,43.224,21.776,43,21.5,43z"/><path fill="#fff" d="M21.5,45c-0.177,0-4.823,0-5,0c-0.276,0-0.5,0.224-0.5,0.5c0,0.276,0.224,0.5,0.5,0.5 c0.177,0,4.823,0,5,0c0.276,0,0.5-0.224,0.5-0.5C22,45.224,21.776,45,21.5,45z"/><path fill="#fff" d="M26.5,47c-0.177,0-2.823,0-3,0c-0.276,0-0.5,0.224-0.5,0.5c0,0.276,0.224,0.5,0.5,0.5 c0.177,0,2.823,0,3,0c0.276,0,0.5-0.224,0.5-0.5C27,47.224,26.776,47,26.5,47z"/><path fill="#fff" d="M85,64H75c-0.276,0-0.5-0.224-0.5-0.5S74.724,63,75,63h10c0.276,0,0.5,0.224,0.5,0.5 S85.276,64,85,64z"/><path fill="#fff" d="M89,64h-2c-0.276,0-0.5-0.224-0.5-0.5S86.724,63,87,63h2c0.276,0,0.5,0.224,0.5,0.5 S89.276,64,89,64z"/><path fill="#fff" d="M94,66H84c-0.276,0-0.5-0.224-0.5-0.5S83.724,65,84,65h10c0.276,0,0.5,0.224,0.5,0.5 S94.277,66,94,66z"/><path fill="#fff" d="M82,66h-1c-0.276,0-0.5-0.224-0.5-0.5S80.724,65,81,65h1c0.276,0,0.5,0.224,0.5,0.5 S82.276,66,82,66z"/><path fill="#fff" d="M78.875,66H77c-0.276,0-0.5-0.224-0.5-0.5S76.724,65,77,65h1.875c0.276,0,0.5,0.224,0.5,0.5 S79.151,66,78.875,66z"/><path fill="#fff" d="M88,62h-5c-0.276,0-0.5-0.224-0.5-0.5S82.724,61,83,61h5c0.276,0,0.5,0.224,0.5,0.5 S88.277,62,88,62z"/><path fill="#fff" d="M85,68h-2c-0.276,0-0.5-0.224-0.5-0.5S82.724,67,83,67h2c0.276,0,0.5,0.224,0.5,0.5 S85.276,68,85,68z"/><g><path fill="#fdfcef" d="M66.25,34.5c0,0-1.567,0-3.5,0s-3.5-1.567-3.5-3.5c0-1.781,1.335-3.234,3.055-3.455 C62.277,27.366,62.25,27.187,62.25,27c0-1.933,1.567-3.5,3.5-3.5c1.032,0,1.95,0.455,2.59,1.165 c0.384-1.808,1.987-3.165,3.91-3.165c2.209,0,4,1.791,4,4c0,0.191-0.03,0.374-0.056,0.558c0.428-0.344,0.965-0.558,1.556-0.558 c1.228,0,2.245,0.887,2.455,2.055c0.179-0.028,0.358-0.055,0.545-0.055c1.933,0,3.5,1.567,3.5,3.5s-1.567,3.5-3.5,3.5 s-7.5,0-7.5,0V35h-7V34.5z"/><path fill="#472b29" d="M64.5,30c0.138,0,0.25-0.112,0.25-0.25c0-1.223-0.995-2.218-2.218-2.218 c-0.034,0.009-0.737-0.001-1.244,0.136c-0.133,0.036-0.212,0.173-0.176,0.306c0.036,0.134,0.173,0.213,0.306,0.176 c0.444-0.12,1.1-0.12,1.113-0.118c0.948,0,1.719,0.771,1.719,1.718C64.25,29.888,64.362,30,64.5,30z"/><circle cx="71.25" cy="34.5" r=".5" fill="#472b29"/><path fill="#472b29" d="M62.75,35h3.5c0.276,0,0.5-0.224,0.5-0.5s-0.224-0.5-0.5-0.5h-3.5c-1.654,0-3-1.346-3-3 c0-1.496,1.125-2.768,2.618-2.959c0.134-0.018,0.255-0.088,0.336-0.196s0.115-0.244,0.094-0.377 C62.775,27.314,62.75,27.16,62.75,27c0-1.654,1.346-3,3-3c0.85,0,1.638,0.355,2.219,1c0.125,0.139,0.321,0.198,0.5,0.148 c0.182-0.049,0.321-0.195,0.36-0.379C69.17,23.165,70.609,22,72.25,22c1.93,0,3.5,1.57,3.5,3.5c0,0.143-0.021,0.28-0.041,0.418 c-0.029,0.203,0.063,0.438,0.242,0.54c0.179,0.102,0.396,0.118,0.556-0.01C76.872,26.155,77.301,26,77.75,26 c0.966,0,1.792,0.691,1.963,1.644c0.048,0.267,0.296,0.446,0.569,0.405C80.436,28.025,80.59,28,80.75,28c1.654,0,3,1.346,3,3 s-1.346,3-3,3h-7.5c-0.276,0-0.5,0.224-0.5,0.5s0.224,0.5,0.5,0.5h7.5c2.206,0,4-1.794,4-4s-1.794-4-4-4 c-0.059,0-0.116,0.002-0.174,0.006C80.162,25.82,79.039,25,77.75,25c-0.349,0-0.689,0.061-1.011,0.18 C76.574,22.847,74.624,21,72.25,21c-1.831,0-3.466,1.127-4.153,2.774C67.417,23.276,66.595,23,65.75,23c-2.206,0-4,1.794-4,4 c0,0.048,0.001,0.095,0.004,0.142C60.011,27.59,58.75,29.169,58.75,31C58.75,33.206,60.544,35,62.75,35z"/><path fill="#472b29" d="M68.25,34c0.159,0,0.841,0,1,0c0.276,0,0.5,0.224,0.5,0.5c0,0.276-0.224,0.5-0.5,0.5 c-0.159,0-0.841,0-1,0c-0.276,0-0.5-0.224-0.5-0.5C67.75,34.224,67.974,34,68.25,34z"/></g><g><path fill="#be7841" d="M33.521,76.3c-1.004,0-1.821-0.817-1.821-1.821V33.521c0-1.004,0.817-1.821,1.821-1.821h31.957 c1.004,0,1.821,0.817,1.821,1.821v40.957c0,1.004-0.817,1.821-1.821,1.821H33.521z"/><path fill="#472b29" d="M65.478,32.4c0.619,0,1.122,0.503,1.122,1.122v40.956c0,0.619-0.503,1.122-1.122,1.122H33.522 c-0.619,0-1.122-0.503-1.122-1.122V33.522c0-0.619,0.503-1.122,1.122-1.122H65.478 M65.478,31H33.522 C32.129,31,31,32.129,31,33.522v40.956C31,75.871,32.129,77,33.522,77h31.956C66.871,77,68,75.871,68,74.478V33.522 C68,32.129,66.871,31,65.478,31L65.478,31z"/></g><g><polygon fill="#fffef4" points="34.7,72.3 34.7,35.7 64.3,35.7 64.3,65.742 57.491,72.3"/><path fill="#472b29" d="M63.6,36.4v29.045L57.209,71.6H35.4V36.4H63.6 M65,35H34v38h23.774L65,66.04V35L65,35z"/></g><g><polygon fill="#88cdd7" points="63.062,66 57.996,70.688 57.967,66"/></g><g><path fill="#f2df5e" d="M44.208,38.3c-0.831,0-1.508-0.58-1.508-1.293v-3.233c0-0.712,0.33-0.822,0.438-0.858 c0.036-0.013,0.071-0.027,0.104-0.045l3.907-2.059c1.053-0.515,1.967-0.759,2.86-0.759c0.896,0,1.835,0.246,2.952,0.772 l3.866,2.309c0.033,0.02,0.067,0.036,0.103,0.05c0.358,0.141,0.368,0.544,0.368,0.59v3.233c0,0.713-0.677,1.293-1.508,1.293 H44.208z"/><path fill="#472b29" d="M50.011,30.753c0.775,0,1.6,0.216,2.594,0.677l3.865,2.304c0.042,0.025,0.085,0.048,0.129,0.068 v3.204c0,0.321-0.37,0.593-0.808,0.593H44.208c-0.438,0-0.808-0.272-0.808-0.593v-3.234c0-0.101,0.011-0.173,0.022-0.217 c0.05-0.02,0.099-0.042,0.147-0.067l3.87-2.039C48.411,30.974,49.228,30.753,50.011,30.753 M50.011,29.353 c-1.027,0-2.043,0.28-3.187,0.839l-3.907,2.058C42.187,32.495,42,33.188,42,33.773v3.234C42,38.108,42.989,39,44.208,39h11.583 C57.011,39,58,38.108,58,37.007v-3.234c0-0.388-0.188-0.996-0.813-1.241l-3.925-2.34C52.076,29.633,51.038,29.353,50.011,29.353 L50.011,29.353z"/></g><g><circle cx="50" cy="33" r="1" fill="#472b29"/></g><g><path fill="#472b29" d="M58.2,72h-1.4v-6.5c0-0.387,0.313-0.7,0.7-0.7H64v1.4h-5.8V72z"/></g><g><path fill="#fdfcef" d="M26,81h-5.75c-2.485,0.75-4.5-1.265-4.5-3.75c0-2.333,1.782-4.229,4.055-4.455 c-0.022-0.181-0.055-0.358-0.055-0.545c0-2.485,2.015-4.5,4.5-4.5c1.438,0,2.703,0.686,3.527,1.736 c0.14-2.636,2.302-4.736,4.973-4.736c2.761,0,5,2.239,5,5c0,0.446-0.077,0.87-0.187,1.282c0.642-0.777,1.6-1.282,2.687-1.282 c1.781,0,3.234,1.335,3.455,3.055c0.181-0.022,0.358-0.055,0.545-0.055c2.485,0,4.5,2.015,4.5,4.5s-2.015,4.5-4.5,3.75h-9.5H29v1 h-3V81z"/><path fill="#472b29" d="M32.5,64c3.033,0,5.5,2.467,5.5,5.5c0,0.016,0,0.031,0,0.047C38.602,69.192,39.29,69,40,69 c1.831,0,3.411,1.261,3.858,3.005C43.905,72.002,43.952,72,44,72c3.099,0,5.549,2.834,4.893,6.047 C48.413,80.398,46.204,82,43.804,82l-14.679,0c-0.276,0-0.5-0.224-0.5-0.5c0-0.276,0.224-0.5,0.5-0.5h14.718 c1.92,0,3.687-1.282,4.071-3.163C48.439,75.267,46.479,73,44,73c-0.117,0-0.23,0.017-0.343,0.032l-0.141,0.019 c-0.021,0.003-0.041,0.004-0.062,0.004c-0.246,0-0.462-0.185-0.495-0.437C42.768,71.125,41.496,70,40,70 c-0.885,0-1.723,0.401-2.301,1.1c-0.098,0.118-0.241,0.182-0.386,0.182c-0.078,0-0.156-0.018-0.228-0.056 c-0.209-0.107-0.314-0.346-0.254-0.573c0.16-0.6,0.202-1.069,0.147-1.549c-0.24-2.127-1.959-3.909-4.092-4.088 c-2.551-0.215-4.725,1.728-4.859,4.246c-0.011,0.208-0.15,0.387-0.349,0.45c-0.05,0.016-0.101,0.024-0.152,0.024 c-0.15,0-0.296-0.069-0.392-0.192C26.362,68.563,25.221,68,24,68c-2.206,0-4,1.794-4,4c0,0.117,0.017,0.23,0.032,0.343 l0.019,0.141c0.016,0.134-0.022,0.268-0.106,0.373c-0.084,0.105-0.207,0.172-0.34,0.185c-2.352,0.234-4.042,2.429-3.504,4.865 C16.509,79.76,18.275,81,20.173,81l5.952,0c0.276,0,0.5,0.224,0.5,0.5c0,0.276-0.224,0.5-0.5,0.5h-5.938 c-2.467,0-4.708-1.704-5.115-4.138c-0.462-2.763,1.344-5.22,3.931-5.74C19.001,72.082,19,72.041,19,72c0-2.757,2.243-5,5-5 c1.176,0,2.293,0.416,3.183,1.164C27.781,65.76,29.945,64,32.5,64L32.5,64z"/><path fill="#472b29" d="M34.25,71.25c1.403,0,2.609,0.999,2.913,2.341c0.367-0.222,0.786-0.341,1.212-0.341 c1.202,0,2.198,0.897,2.353,2.068c0.203-0.045,0.396-0.068,0.585-0.068c1.529,0,2.811,1.2,2.918,2.732 c0.009,0.138-0.094,0.257-0.232,0.267c-0.006,0-0.012,0-0.018,0c-0.13,0-0.24-0.101-0.249-0.232 c-0.089-1.271-1.151-2.268-2.419-2.268c-0.229,0-0.47,0.042-0.738,0.127c-0.022,0.007-0.045,0.01-0.067,0.01 c-0.055,0-0.11-0.02-0.156-0.054c-0.064-0.047-0.102-0.129-0.102-0.209c0-1.034-0.841-1.875-1.875-1.875 c-0.447,0-0.885,0.168-1.231,0.473c-0.047,0.041-0.106,0.063-0.165,0.063c-0.032,0-0.063-0.006-0.093-0.019 c-0.088-0.035-0.148-0.117-0.155-0.212c-0.102-1.292-1.191-2.305-2.479-2.305c-0.208,0-0.425,0.034-0.682,0.107 c-0.023,0.007-0.047,0.01-0.07,0.01c-0.109,0-0.207-0.073-0.239-0.182c-0.038-0.133,0.039-0.271,0.172-0.309 C33.733,71.29,33.994,71.25,34.25,71.25L34.25,71.25z"/><path fill="#472b29" d="M20.367,72.75c1.326,0,2.508,0.897,2.874,2.182c0.038,0.133-0.039,0.271-0.172,0.309 c-0.023,0.007-0.046,0.01-0.068,0.01c-0.109,0-0.209-0.072-0.24-0.182c-0.305-1.071-1.289-1.818-2.393-1.818 c-0.117,0-0.23,0.014-0.342,0.029c-0.012,0.002-0.023,0.003-0.035,0.003c-0.121,0-0.229-0.092-0.246-0.217 c-0.019-0.137,0.077-0.263,0.214-0.281C20.092,72.766,20.228,72.75,20.367,72.75L20.367,72.75z"/></g><g><polyline fill="#fffef4" points="54.456,54.671 52.034,60.665 58.028,58.243"/><path fill="#472b29" d="M52.034,61.365c-0.182,0-0.361-0.071-0.495-0.205c-0.198-0.199-0.259-0.497-0.154-0.758 l2.422-5.994l1.299,0.525l-1.805,4.464l4.465-1.805l0.525,1.299l-5.994,2.423C52.212,61.349,52.122,61.365,52.034,61.365z"/><path fill="#ef7d99" d="M69.548,45.556c-0.646,0-1.251-0.249-1.703-0.701c-0.939-0.939-0.939-2.467,0-3.406l1.884-1.884 c0.452-0.453,1.058-0.702,1.703-0.702s1.251,0.249,1.703,0.702c0.939,0.938,0.939,2.467,0,3.405l-1.885,1.885 C70.798,45.307,70.193,45.556,69.548,45.556z"/><path fill="#472b29" d="M71.432,39.563c0.459,0,0.888,0.176,1.208,0.497c0.32,0.32,0.497,0.749,0.497,1.208 c0,0.459-0.176,0.888-0.497,1.208l-1.884,1.884c-0.32,0.32-0.749,0.497-1.208,0.497c-0.459,0-0.888-0.177-1.208-0.497 c-0.666-0.666-0.666-1.75,0-2.416l1.884-1.884C70.544,39.739,70.973,39.563,71.432,39.563 M71.432,38.163 c-0.797,0-1.594,0.302-2.198,0.906l-1.884,1.884c-1.209,1.209-1.209,3.187,0,4.396c0.604,0.604,1.401,0.907,2.198,0.907 c0.797,0,1.594-0.302,2.198-0.907l1.884-1.884c1.209-1.209,1.209-3.187,0-4.396v0C73.025,38.465,72.228,38.163,71.432,38.163 L71.432,38.163z"/><g><rect width="18.138" height="4.816" x="53.885" y="47.337" fill="#f2df5e" transform="rotate(-45.001 62.95 49.745)"/><path fill="#472b29" d="M67.664,42.619l2.416,2.416L58.244,56.871l-2.416-2.416L67.664,42.619 M67.664,40.639 L53.848,54.455l4.396,4.396L72.06,45.035L67.664,40.639L67.664,40.639z"/></g><g><rect width="3.04" height="4.816" x="68.027" y="40.743" fill="#88cdd7" transform="rotate(-45.001 69.548 43.152)"/><path fill="#472b29" d="M68.92,41.363l2.416,2.416l-1.16,1.16l-2.416-2.416L68.92,41.363 M68.92,39.383l-3.14,3.14 l4.396,4.396l3.14-3.14L68.92,39.383L68.92,39.383z"/></g></g><g><path fill="#472b29" d="M38.5,64.75c-0.138,0-0.25-0.112-0.25-0.25v-4c0-0.138,0.112-0.25,0.25-0.25s0.25,0.112,0.25,0.25v4 C38.75,64.638,38.638,64.75,38.5,64.75z"/></g><g><path fill="#472b29" d="M38.5,58.75c-0.138,0-0.25-0.112-0.25-0.25v-15c0-0.138,0.112-0.25,0.25-0.25s0.25,0.112,0.25,0.25 v15C38.75,58.638,38.638,58.75,38.5,58.75z"/></g><g><path fill="#472b29" d="M46.5,68.75h-2c-0.138,0-0.25-0.112-0.25-0.25s0.112-0.25,0.25-0.25h2c0.138,0,0.25,0.112,0.25,0.25 S46.638,68.75,46.5,68.75z"/></g><g><path fill="#472b29" d="M53.5,68.75h-5c-0.138,0-0.25-0.112-0.25-0.25s0.112-0.25,0.25-0.25h5c0.138,0,0.25,0.112,0.25,0.25 S53.638,68.75,53.5,68.75z"/></g></svg>