<svg xmlns="http://www.w3.org/2000/svg" xmlns:xlink="http://www.w3.org/1999/xlink" viewBox="0,0,256,256" width="500px" height="500px"><g fill-opacity="0" fill="#dddddd" fill-rule="nonzero" stroke="none" stroke-width="1" stroke-linecap="butt" stroke-linejoin="miter" stroke-miterlimit="10" stroke-dasharray="" stroke-dashoffset="0" font-family="none" font-weight="none" font-size="none" text-anchor="none" style="mix-blend-mode: normal"><path d="M0,256v-256h256v256z" id="bgRectangle"></path></g><g fill="#000000" fill-rule="nonzero" stroke="none" stroke-width="1" stroke-linecap="butt" stroke-linejoin="miter" stroke-miterlimit="10" stroke-dasharray="" stroke-dashoffset="0" font-family="none" font-weight="none" font-size="none" text-anchor="none" style="mix-blend-mode: normal"><g transform="scale(5.12,5.12)"><path d="M44.875,4c-0.09766,0.01563 -0.19141,0.04688 -0.28125,0.09375l-40,17.1875c-0.35547,0.15625 -0.58594,0.50781 -0.59375,0.89453c-0.00781,0.39063 0.21484,0.74609 0.5625,0.91797l14.90625,7.4375l7.4375,14.90625c0.17188,0.34766 0.52734,0.57031 0.91797,0.5625c0.38672,-0.00781 0.73828,-0.23828 0.89453,-0.59375l17.1875,-40c0.14844,-0.32812 0.10938,-0.71484 -0.10547,-1.00391c-0.21094,-0.29297 -0.56641,-0.44531 -0.92578,-0.40234zM40.625,7.96875l-20.625,20.625l-12.625,-6.3125zM42.03125,9.375l-14.3125,33.25l-6.3125,-12.625z"></path></g></g></svg>